<svg width="24" height="24" viewBox="0 0 24 24" fill="none" xmlns="http://www.w3.org/2000/svg">
<path d="M20 20C20 20.2652 19.8946 20.5196 19.7071 20.7071C19.5196 20.8946 19.2652 21 19 21H5C4.73478 21 4.48043 20.8946 4.29289 20.7071C4.10536 20.5196 4 20.2652 4 20V11H1L11.327 1.61198C11.5111 1.44446 11.7511 1.35162 12 1.35162C12.2489 1.35162 12.4889 1.44446 12.673 1.61198L23 11H20V20ZM18 19V9.15698L12 3.70298L6 9.15698V19H18ZM12 17L8.641 13.641C8.43207 13.432 8.26633 13.184 8.15326 12.911C8.04018 12.638 7.98199 12.3455 7.98199 12.05C7.98199 11.7545 8.04018 11.4619 8.15326 11.1889C8.26633 10.916 8.43207 10.6679 8.641 10.459C8.84993 10.25 9.09797 10.0843 9.37096 9.97124C9.64394 9.85817 9.93652 9.79997 10.232 9.79997C10.5275 9.79997 10.8201 9.85817 11.093 9.97124C11.366 10.0843 11.6141 10.25 11.823 10.459L12 10.636L12.177 10.459C12.3859 10.25 12.634 10.0843 12.907 9.97124C13.1799 9.85817 13.4725 9.79997 13.768 9.79997C14.0635 9.79997 14.3561 9.85817 14.629 9.97124C14.902 10.0843 15.1501 10.25 15.359 10.459C15.5679 10.6679 15.7337 10.916 15.8467 11.1889C15.9598 11.4619 16.018 11.7545 16.018 12.05C16.018 12.3455 15.9598 12.638 15.8467 12.911C15.7337 13.184 15.5679 13.432 15.359 13.641L12 17Z" fill="#0D3453"/>
</svg>
