<?xml version="1.0" encoding="UTF-8"?><svg id="Layer_2" xmlns="http://www.w3.org/2000/svg" viewBox="0 0 427.7 76.6"><defs><style>.cls-1{fill:#fff;}.cls-2{fill:#ff5151;}</style></defs><g id="Layer_1-2"><g><path class="cls-1" d="M183.5,56.8c-3.6-1.6-6.3-3.6-8.2-6.2-1.8-2.6-2.7-5.3-2.7-8.2s1-6,2.9-8.8c1.9-2.8,4.7-5,8.4-6.8,3.7-1.7,8.1-2.6,13.2-2.6h34.4c2.9,0,5.4-.5,7.5-1.4,2.1-1,3.6-2.2,4.6-3.7,1-1.5,1.5-3,1.5-4.6s-.4-2.2-1.1-2.8-1.6-.9-2.7-.9-1.6,.2-2.3,.6c-.7,.4-1.1,.9-1.2,1.4-1.1-.3-2-1-2.6-1.9-.6-.9-.9-2-.9-3.3,0-2,.7-3.8,2.2-5.4,1.5-1.6,3.5-2.3,6.2-2.3s4.2,.5,5.9,1.5,2.9,2.4,3.8,4.1c.9,1.7,1.3,3.5,1.3,5.5s-.9,4.7-2.6,6.9c-1.7,2.2-4.2,4.1-7.5,5.5-3.3,1.4-7.1,2.1-11.5,2.1h-2.2v40c0,1.7,.3,3.3,.8,4.6,.6,1.4,1.6,2.5,3.3,3.4v1h-25.5v-1c1.6-.9,2.7-2.1,3.3-3.5,.6-1.4,.8-2.9,.8-4.6V25.7h-2.4c-4.6,0-9.3,.8-13.7,2.4-4.1,1.5-8.4,3.4-11.1,7s-.7,1-1,1.6c-1.8,3.2-2.1,6.8,.4,9.2,2.6,2.4,2.6,6.4,4.1,8.9,1.5,2.5,3.4,3.7,5.9,3.7"/><g><path class="cls-1" d="M53.5,28v-.7H29.7v.7c4,0,5.9,1.6,5.9,4.9v15.5H17.9v-15.5c0-3.8-1-5.6-3-5.6H0v.7c4,0,5.9,1.6,5.9,4.9v19.4c1.4,.1,2.8,.5,3.9,1.1,1.7,1,5.8,2.1,6.6,3.8,.3,.6,.5,.5,.8,1,.3,.5,.6,1.5,.6,2.1v-11.3h17.8v20.4c0,3.3-2,4.9-5.9,4.9v.7h23.8v-.7c-4,0-5.9-1.6-5.9-4.9V32.9c0-3.3,2-4.9,5.9-4.9ZM5.9,52.9v14.6s0,0,0,0c2.8-1.2,4.7-4,4.7-7.2s-1.9-6-4.7-7.3Z"/><path class="cls-1" d="M134.7,27.3c0-3.3-1.5-4.9-4.5-4.9v-.7h11.2c1.5,0,2.2,1.9,2.2,5.6v37.2l13-20.7c.6-1,1-1.8,1-2.5,0-1.3-1.3-2-3.8-2v-.7h9.6v.7c-1.2,0-2.2,.3-3,.8-.7,.5-1.8,1.9-3.1,4l-3.7,5.9,7.9,19.6c.9,2.2,1.6,3.6,2.1,4.1,.5,.5,1.4,.7,2.6,.7v.7h-10.7c-1.4,0-2.8-1.7-4-5.2l-4.1-10.1-3.7,5.9v3.9c0,3.3,1.5,4.9,4.5,4.9v.7h-18v-.7c3,0,4.5-1.6,4.5-4.9V27.3Z"/><path class="cls-1" d="M17.9,60.4v1.4c0,1.2-.1,2.4-.3,3.5-.5,2.4-1.4,4.7-3,6.6-1.1,1.3-2.6,2.4-4.1,3.2H0v-.2c.4-.2,.8-.4,1.1-.6,3.2-.3,4.8-1.9,4.8-4.9v-2s0,0,0,0c2.8-1.2,4.7-4,4.7-7.2s-1.9-6-4.7-7.3v-.6c1.4,.1,2.8,.5,3.9,1.1,1.7,1,5.8,2.1,6.6,3.8,.3,.6,.5,.5,.8,1,.3,.5,.6,1.5,.6,2.1Z"/><path class="cls-1" d="M5.9,67.5v2c0,3-1.6,4.6-4.8,4.9,1.4-.8,2.5-1.8,3.3-3,.9-1.2,1.4-2.5,1.5-3.9Z"/></g><g><path class="cls-1" d="M237.9,73.7c1.6-.9,2.7-2.1,3.3-3.5,.6-1.4,.8-2.9,.8-4.6v-17.4c0-3.4,0-5.8-.3-7.3-.2-1.5-.6-2.5-1.1-3.2s-1.5-1-2.7-1.2v-1h21.4v9c1.4-2.5,3.3-4.8,5.7-6.7,2.4-1.9,4.7-2.9,7.1-2.9s3.9,.7,5,2c1.2,1.3,1.7,2.9,1.7,4.8s-.6,3.4-1.9,4.5c-1.3,1.1-2.8,1.7-4.6,1.7s-3.4-.6-4.8-1.7c-1.3-1.2-2-2.8-2-4.8s0-1,.3-1.6c-.9,.7-2,1.8-3.2,3.3-1.2,1.5-2.3,3.1-3.3,4.8v17.8c0,1.7,.3,3.3,.8,4.6,.6,1.4,1.6,2.5,3.3,3.4v1h-25.5v-1Z"/><path class="cls-1" d="M285.1,74.7c-2.1-.9-3.7-2.3-5-4.1-1.3-1.8-1.9-3.8-1.9-6.1s.8-4.3,2.4-6.2c1.6-1.9,4-3.4,7.3-4.6,3.2-1.2,7.2-1.8,11.9-1.8s2.3,0,3,0v-9c0-2-.4-3.5-1.2-4.6s-1.7-1.6-2.8-1.6-2.1,.5-2.9,1.6c-.8,1.1-1.2,2.6-1.2,4.5s.9,4.6,2.7,6.2c-2.8,1.1-5.3,1.6-7.3,1.6s-4.2-.6-5.5-1.7c-1.3-1.1-1.9-2.5-1.9-4.1,0-3,1.5-5.4,4.5-7.1,3-1.7,6.6-2.6,10.9-2.6s7.2,.7,10.5,2,6.2,3.3,8.3,5.9c2.2,2.6,3.2,5.9,3.2,9.7v13c0,2.4,.3,4.2,.9,5.7,.6,1.4,1.7,2.2,3.2,2.4v1h-13.8c-2.1,0-3.7-.5-5-1.5-1.3-1-2.1-2.4-2.4-4.2-1.1,2.3-2.6,4-4.6,5.2-2,1.2-4.3,1.7-6.7,1.7s-4.4-.5-6.5-1.4Zm17.6-20.8c-2.9,.2-5.2,1.4-6.8,3.4-1.7,2-2.5,4.4-2.5,7s.4,3.2,1.3,4.2c.9,1,1.9,1.5,3.1,1.5s1.9-.3,2.7-.9,1.6-1.5,2.2-2.7v-12.5Z"/><path class="cls-1" d="M72.1,41.8c12.4,0,17.9,7.5,17.9,16.7,0,9.1-5.5,16.7-17.9,16.7-12.4,0-17.9-7.6-17.9-16.7,0-9.2,5.5-16.7,17.9-16.7Zm0,32.7c3.8,0,3.9-3.5,3.9-16,0-12.6,0-16-3.9-16-3.7,0-3.8,3.5-3.8,16s0,16,3.8,16Z"/><path class="cls-1" d="M112.2,41.8c0,0-.1,0-.2,0s0,0,0,0c0,0-.1,0-.2,0-12.4,0-17.9,7.5-17.9,16.7s5.5,16.7,17.9,16.7,.1,0,.2,0c0,0,0,0,0,0,0,0,.1,0,.2,0,12.1-.2,17.4-7.7,17.4-16.6s-5.4-16.4-17.4-16.6Zm7.9,22.9c-.2,1.8-.6,3.5-1.6,5-1.2,1.8-3,3.1-5.1,3.6s-3.9,.3-5.6-.5c-1.6-.7-3-1.9-3.8-3.4-.9-1.6-1.2-3.5-1.2-5.4,0-4.4,1.7-8.7,4.8-11.8,0,0,0,0,.1,0,.2,0,.4,.2,.4,.5,.3,4.7,1.3,9.5,4,13.3,.2,.2,.3,.7,0,.8,0,0-.2,0-.3,0l-5.2-1.3c0,.4,.2,1.2,.2,1.3,.1,.8,.3,1.6,.8,2.3,.7,1.1,1.8,1.9,2.9,2.5,1,.5,2.1,.6,3.1,.3s1.8-1,2.4-1.7c1.4-1.6,2.1-3.8,2-5.9s-1.1-4.6-2.2-6.7-.1-.2-.2-.3c-.8-1.5-1.9-2.9-3.2-4-1-.8-1.9-1.9-2.5-2.9s-.8-2.6-.4-3.9,1.9-2.7,3.4-3c1.5-.3,3.3,.2,4.3,1.4,1.2,1.3,1.6,3.2,1.8,5,.5,3.4,1,6.8,1.1,10.3,0,1.5,0,3.1,0,4.6Z"/></g><path class="cls-2" d="M191,39c0-2.9-1.2-4.2-3.1-4.2s-4.1,2-4.1,5.1,1.2,4.8,3.6,7.9l9.9,12.5c1.1-1.7,2.2-4,2.2-5.8s-1.3-3.6-5-3.6v-.5s4.9,.2,7.7,.2,6.8-.2,6.8-.2v.5c-6.7,0-8.3,5.6-11.4,9.9l4,5.2c1.6,2,4,4.6,6.5,4.6s1-.2,1.6-.4l.2,.3s-3.8,4.5-10.1,4.5-7.4-1.5-10.5-5.1c-4,3.5-7.8,5.1-12.2,5.1s-9.4-3.6-9.4-8.1,5.6-9.6,11.4-10.4c-3.4-4-5.6-7.3-5.6-11.3,0-7.2,7.9-11,14.8-11s10.5,2.9,10.5,6.2-2.6,4.7-5.4,4.7-3.3-.5-4.3-1.3c1.1-1.3,1.8-3.1,1.8-4.9Zm-2,30.4l-9.5-12.5c-.7,1.1-1,2.6-1,4.3,0,4.5,2.6,9.8,7.1,9.8s2.7-.9,3.5-1.6Z"/><path class="cls-1" d="M323.5,40.5c-.4-1.3-1-2.3-1.7-2.9-.7-.6-1.7-.9-2.8-.9v-1h24.3v1c-1.8,0-2.7,.7-2.7,2.2s0,1.2,.3,1.6l11.2,29.7,7.7-26.1c.8-2.6,1.2-4.5,1.2-5.6s-.5-1.8-1.4-1.8v-1h8.1v1c-.9,0-1.7,.5-2.5,1.6-.8,1.1-1.6,3-2.4,5.8l-9.1,30.7h-18l-12-34.3Z"/><path class="cls-1" d="M389.9,75.3c-3.5,1.4-7,1.7-10.7,1-3.7-.7-7.1-2.7-10.2-6-2.4-2.6-4.1-5.5-5.1-9-1-3.4-.9-7,.2-10.8,1.1-3.8,3.4-7.4,7-10.7,3.5-3.3,7.1-5.5,10.9-6.6,3.8-1.1,7-.2,9.7,2.6,2.5,2.7,3.4,5.8,2.7,9.4-.7,3.6-2.7,6.9-5.9,9.9-1.5,1.4-3.5,2.8-5.8,4.2,2.3,1.5,4.6,2.5,7,2.9,5,.9,11-1,14.1-5.1,1.1-1.5,1.8-3.2,2.1-5s.3-3.8,.3-5.7c0-.5,.1-1,.4-1.4h.3c.7,4.8,.3,9.6-1.3,14-.4,1-.8,2-1.3,3-3,6.1-8.2,10.8-14.5,13.2Zm-7.2-17.8c2-1.8,2.6-4.3,2.1-7.3-.6-3-2.2-6-5-8.9-1.2-1.3-2.3-2.1-3.5-2.6-1.1-.5-2.1-.3-2.8,.3-1.8,1.7-2.2,4.1-1.2,7.1,1,3.1,2.9,6.1,5.8,9.2,1,1.1,2.1,2.1,3.4,3.1,.6-.4,1-.7,1.2-.9Z"/><path class="cls-1" d="M402.3,73.8c1.6-.9,2.7-2,3.3-3.3,.6-1.3,.8-2.8,.8-4.5v-27.9c0-3.2,0-5.6-.3-7-.2-1.4-.2-2.2-.8-2.8-1.1-1-2.5-.8-4.5-.8l1.5-1.6h21.4v40.1c0,1.7,.3,3.2,.8,4.5,.6,1.3,1.6,2.4,3.3,3.3v1h-25.5v-1Z"/></g></g></svg>