<?xml version="1.0" encoding="UTF-8"?><svg xmlns="http://www.w3.org/2000/svg" viewBox="0 0 1724 242.9"><defs><style>.d{fill:#ff5151;}.e{fill:#161e54;}</style></defs><g id="a"/><g id="b"><g id="c"><g><g><path class="e" d="M192.7,3.3V235.7h-46.6v-98.9H46.6v98.9H0V3.3H46.6V98.9h99.5V3.3h46.6Z"/><path class="e" d="M405.6,222.7c-18.2-10.2-32.6-24.3-43.3-42.4-10.7-18.1-16-38.6-16-61.4s5.3-43,16-61.1c10.7-18.1,25.1-32.2,43.3-42.4,18.2-10.2,38.2-15.3,59.9-15.3s42,5.1,60.1,15.3c18.1,10.2,32.4,24.4,42.9,42.4,10.5,18.1,15.8,38.4,15.8,61.1s-5.3,43.3-15.8,61.4c-10.5,18.1-24.9,32.2-43.1,42.4-18.2,10.2-38.2,15.3-59.9,15.3s-41.7-5.1-59.9-15.3Zm96.9-35.8c10.7-6.3,19-15.4,25-27.1,6-11.8,9-25.4,9-40.9s-3-29.1-9-40.8c-6-11.7-14.3-20.6-25-26.8-10.7-6.2-23-9.3-36.9-9.3s-26.4,3.1-37.1,9.3c-10.8,6.2-19.1,15.1-25.1,26.8-6,11.7-9,25.2-9,40.8s3,29.2,9,40.9c6,11.8,14.4,20.8,25.1,27.1,10.8,6.3,23.1,9.5,37.1,9.5s26.3-3.2,36.9-9.5Z"/><path class="e" d="M748.2,235.7l-84.5-103.5v103.5h-46.6V3.3h46.6V107.5L748.2,3.3h56.3l-95.9,115.2,98.5,117.2h-58.9Z"/><g><path class="d" d="M465.3,118.8c0-22.6-5.3-43-15.8-61.1-.3-.6-.7-1.2-1-1.7-5,1.3-9.7,3.2-14.1,5.7-8.8,5.1-15.5,12.2-20.4,21.9-.6,1.1-1.1,2.3-1.7,3.5,3.4,9.5,5.1,20.1,5.1,31.7s-1.7,22.3-5.1,31.8c.5,1.2,1.1,2.4,1.7,3.6,5,9.8,11.7,17,20.5,22.2,4.3,2.5,8.9,4.4,13.8,5.7,.4-.7,.8-1.3,1.2-2,10.5-18.1,15.8-38.6,15.8-61.4Z"/><path class="d" d="M357.9,195.6c-3.7,.5-7.5,.8-11.4,.8-14,0-26.4-3.2-37.1-9.5-10.8-6.3-19.1-15.4-25.1-27.1-6-11.8-9-25.4-9-40.9s3-29.1,9-40.8c6-11.7,14.4-20.6,25.1-26.8,10.8-6.2,23.1-9.3,37.1-9.3s7.6,.2,11.2,.7c9.5-13.6,21.4-24.9,35.3-33.9-14.4-5.8-29.9-8.8-46.5-8.8s-41.7,5.1-59.9,15.3c-18.2,10.2-32.6,24.4-43.3,42.4-10.7,18.1-16,38.4-16,61.1s5.3,43.3,16,61.4c10.7,18.1,25.1,32.2,43.3,42.4,18.2,10.2,38.2,15.3,59.9,15.3s32-2.9,46.5-8.8c-13.8-8.9-25.6-20.1-35-33.5Z"/></g></g><g><path class="d" d="M1169.5,77.5v19.3c4.6-5.4,9.7-10.2,15.3-14.5,5.6-4.3,11.7-6.4,18.4-6.4s7.5,.8,10.7,2.5c3.2,1.7,6,3.8,8.4,6.5,2.4,2.7,4.3,5.7,5.6,8.9,1.3,3.2,2,6.5,2,9.8s-1.4,8.8-4.2,12.6c-2.8,3.8-7.4,5.8-13.9,5.8s-8.1-1-10-3.1c-1.9-2.1-3.3-4.3-4.4-6.7-1-2.4-2.1-4.6-3.3-6.7-1.1-2.1-3.2-3.1-6.1-3.1s-6.2,1.2-9.2,3.6c-3,2.4-6.2,5.3-9.5,8.9v118.3h-44.8V77.5h44.8Z"/><path class="d" d="M1370,77.5v105.9c0,8.7,1.2,14.5,3.6,17.3,2.4,2.8,6.6,4.2,12.6,4.2s11.1-2.6,15.1-7.8c4-5.2,6.4-11.7,7-19.6h13.1c-1.7,12.7-4.6,22.8-8.7,30.4-4.2,7.6-8.8,13.4-14,17.4-5.2,4-10.5,6.7-15.9,7.9-5.4,1.2-10.2,1.9-14.3,1.9-11,0-19.4-2.5-25.1-7.6-5.7-5.1-9.7-12.1-12-21-1.7,3.5-3.6,7-5.9,10.4-2.3,3.4-5,6.5-8.2,9.2-3.2,2.7-7,4.9-11.2,6.5-4.3,1.7-9.2,2.5-14.8,2.5s-13.2-1.2-19.6-3.7c-6.4-2.5-12.3-6.5-17.6-12.1-5.3-5.6-9.5-13-12.8-22.3-3.2-9.2-4.8-20.6-4.8-34.1s1.1-19.4,3.3-29.6c2.2-10.2,5.6-19.5,10.3-28,4.7-8.5,10.8-15.5,18.4-21,7.6-5.5,16.8-8.2,27.6-8.2s5.2,.2,8.1,.5c2.9,.3,5.7,1,8.4,2.2,2.7,1.1,5.2,2.8,7.5,5,2.3,2.2,4,5.1,5.3,8.9v-14.9h44.8Zm-44.8,29.9c-.2-.8-.6-1.9-1.2-3.3-.6-1.3-1.6-2.7-2.8-4-1.2-1.3-2.8-2.5-4.7-3.4-1.9-.9-4-1.4-6.5-1.4-5,0-9.3,2.1-12.9,6.4-3.6,4.3-6.5,9.5-8.7,15.9-2.2,6.3-3.8,13.3-4.8,20.9-1,7.6-1.6,14.8-1.6,21.6,0,11,.8,19.6,2.5,25.7,1.7,6.1,3.7,10.6,6.1,13.4,2.4,2.8,4.9,4.5,7.6,5,2.7,.5,5,.8,6.8,.8s4.6-.6,7-1.7c2.4-1.1,4.6-2.9,6.5-5.1,2-2.3,3.6-5.1,4.8-8.6,1.2-3.4,1.9-7.4,1.9-12V107.4Z"/><path class="d" d="M1487.1,71.3c10.6,0,18.2,5.2,22.9,15.6,4.7,10.4,7,24.7,7,43s-1,24-3.1,36.4c-2.1,12.5-5.6,23.8-10.6,33.9-5,10.2-11.6,18.5-19.8,25.1-8.2,6.5-18.4,9.8-30.7,9.8s-26.6-4.7-34.9-14c-8.3-9.3-12.5-21.9-12.5-37.7V77.5h44.8v105.9c0,7.5,1,12.9,3.1,16.3,2.1,3.4,5.5,5.1,10.3,5.1s11.2-2.4,15.6-7.2c4.4-4.8,7.9-10.9,10.7-18.4,2.8-7.5,4.9-15.8,6.2-24.9,1.3-9.1,2-18.1,2-26.8s-.8-18.5-2.5-26.8c-.4,1-1.8,1.8-4,2.3-2.3,.5-4,.8-5.3,.8-2.3,0-4.3-.6-6.1-1.9-1.8-1.2-3.3-2.9-4.7-4.8-1.4-2-2.4-4.1-3.1-6.4-.7-2.3-1.1-4.5-1.1-6.5,0-3.7,1.3-6.8,3.9-9.3,2.6-2.5,6.5-3.7,11.7-3.7Z"/><path class="d" d="M1605.4,208.9c6.2,0,11.7-.8,16.5-2.5,4.8-1.7,9-3.9,12.8-6.7,3.7-2.8,7.2-6.1,10.3-10,3.1-3.8,6.1-7.9,9-12.3h10.6c-2.9,7.3-6.4,14.3-10.4,21.2-4,6.8-9,13-14.9,18.4-5.9,5.4-12.8,9.8-20.7,13.1-7.9,3.3-17.1,5-27.7,5s-17.1-1.4-24.6-4c-7.5-2.7-14-6.9-19.5-12.6-5.5-5.7-9.8-13.1-12.8-22.1-3-9-4.5-19.9-4.5-32.5s1-18.5,3-28.8c2-10.3,5.4-19.8,10.4-28.5,5-8.7,11.7-16,20.2-21.8,8.5-5.8,19.3-8.7,32.4-8.7s17.6,1.6,23,4.7c5.4,3.1,9.4,6.7,12,10.9,2.6,4.2,4.1,8.2,4.7,12.1,.5,3.9,.8,6.7,.8,8.4,0,9.3-1.7,17.5-5.1,24.6-3.4,7.1-8,13-13.7,17.9-5.7,4.9-12.2,8.6-19.6,11.2-7.4,2.6-14.9,4.1-22.6,4.5,.2,13.9,2.5,23.8,7,29.7,4.5,5.9,12.3,8.9,23.5,8.9Zm6.5-96.3c0-7.2-1.2-12.3-3.7-15.3-2.5-3-5.2-4.5-8.1-4.5s-6.7,1.7-9.7,5.1c-2.9,3.4-5.4,8-7.6,13.6-2.2,5.7-3.9,12.3-5.3,20-1.4,7.6-2.2,15.6-2.6,23.9,5.2-.4,10.1-1.8,14.6-4.2,4.6-2.4,8.5-5.5,11.8-9.3,3.3-3.8,5.9-8.2,7.8-13.2,1.9-5,2.8-10.3,2.8-16.1Z"/><path class="d" d="M1698.8,15.3V183.4c0,8.7,1.2,14.5,3.6,17.3,2.4,2.8,6.6,4.2,12.6,4.2s4.1-.3,5.4-.8c1.3-.5,2.4-1.1,3.3-1.7,.2,1,.3,2.1,.3,3.3v3.3c0,8.7-2.5,15.3-7.6,19.6-5.1,4.4-11.5,6.5-19.1,6.5-16,0-27.2-4.4-33.6-13.2-6.4-8.8-9.7-20.5-9.7-35V21.5l44.8-6.2Z"/><path class="d" d="M1162.1,.6c-3.9,1.7-8.9,3.2-14.8,4.5-5.9,1.4-13.2,2-21.9,2s-12.6-.4-18.4-1.1c-5.8-.7-11.7-1.6-17.6-2.5-5.9-.9-12.2-1.8-19-2.5-6.7-.7-14.2-1.1-22.5-1.1-17,0-31.3,1.8-43,5.3-11.7,3.5-21.2,8.4-28.6,14.6-16.1,13.6-22.6,34.2-26.2,54.3-3.2,17.4-4.9,35.3-11.5,51.7-.1,.3-.3,.6-.4,.9-9.2,21.8-26.7,39-48.4,48.1-2.6,1.1-5.5,1.4-8.1,2.4-.2-.8-.4-1.6-.7-2.4l-24.5-88.5c-1.5-5.5-3-11-4.6-16.5-.5-1.8-1.1-3.6-1.6-5.4-1.7-5.5-3.3-10.6-3.6-15.8-.4-5.6,1.4-10.4,5-13.6,4.1-3.7,9.4-5.4,16.3-5.4s17.9,4.3,20.2,13.9c1.4,5.8,1.2,12.6,1,19.1,0,1.2,0,2.3-.1,3.5l-21-8.7,36.5,68.4,36.5-68.4-22.4,9.2c0-1.6,0-3.2,0-4.8,0-4.3,.2-8.7,0-13-.2-4.4-.7-8.3-1.6-11.8-5.6-23.3-28.4-33.7-48.5-33.7s-28.2,4.2-37.8,12.4c-12.3,10.6-16.6,27.6-12.5,49.1,.4,2.2,.9,4.6,1.5,7,1.3,5.3,2.9,10.5,4.4,15.2-15.2,10.4-31.6,25.6-34.3,50.6-2.8,25.9,10.6,50.8,33.5,62,10.3,5.1,22.3,7.6,35.5,7.6l2,5.1c-1.7,3-2.6,6.4-2.6,10,0,11.3,9.2,20.5,20.5,20.5s20.5-9.2,20.5-20.5-4.3-14.4-10.6-17.9c-.1-.5-.3-1-.4-1.7,2.7-.9,8.8-2.1,11.4-3.2,10.7-4.7,21.8-9,31.4-15.7,11.5-8.1,19.7-19.8,25.2-32.5,15.7-36.3,10.7-81.2,39.2-111.6,3.8-4,8.7-7.2,14.9-9.3,6.2-2.2,14-3.3,23.3-3.3h3.1V233.2h44.8V33.3c8.9,1.9,17.5,3.5,25.8,4.8,8.3,1.4,15.8,2,22.4,2,11.8,0,20.3-2.4,25.4-7.3,5.1-4.9,7.6-12,7.6-21.3s-.3-6.7-.9-10.9Zm-325.1,173.9h0c-12.3-7.1-19.5-22.1-17.7-37.5,1.1-9.8,5.7-17.3,13.9-22.9,.4,1.2,.7,2.4,1,3.5l17.1,62.1c-5.3-1-10.1-2.7-14.3-5.1Zm41.9,55.1c-4,0-7.2-3.2-7.2-7.2s3.2-7.2,7.2-7.2,7.2,3.2,7.2,7.2-3.2,7.2-7.2,7.2Z"/></g></g></g></g></svg>