<svg width="60" height="60" viewBox="0 0 60 60" fill="none" xmlns="http://www.w3.org/2000/svg">
<rect width="60" height="60" rx="20" fill="#FF5151"/>
<path d="M19.5916 13.1937C19.1463 12.867 18.5204 12.9632 18.1937 13.4084C17.867 13.8537 17.9632 14.4796 18.4084 14.8063L19.5916 13.1937ZM42 30.875L42.5741 31.6938C42.8379 31.5088 42.9965 31.208 42.9999 30.8858C43.0034 30.5635 42.8514 30.2594 42.5916 30.0687L42 30.875ZM18.4259 46.1812C17.9737 46.4982 17.8641 47.1218 18.1812 47.5741C18.4982 48.0263 19.1218 48.1359 19.5741 47.8188L18.4259 46.1812ZM18.4084 14.8063L41.4084 31.6813L42.5916 30.0687L19.5916 13.1937L18.4084 14.8063ZM41.4259 30.0562L18.4259 46.1812L19.5741 47.8188L42.5741 31.6938L41.4259 30.0562Z" fill="white"/>
</svg>
